<?xml version="1.0" encoding="UTF-8" standalone="no"?>
<svg
   version="1.1"
   id="Layer_1"
   x="0px"
   y="0px"
   width="321.34698"
   height="123.684"
   viewBox="0 0 321.34698 123.68399"
   xml:space="preserve"
   xmlns="http://www.w3.org/2000/svg"
   xmlns:svg="http://www.w3.org/2000/svg">
<style
   type="text/css"
   id="style264">
	.st0{fill:#007680;}
	.st1{fill:#FAA819;}
	.st2{fill:#FFCE01;}
	.st3{fill:#F48245;}
	.st4{fill:#EE3A3D;}
	.st5{fill:#E4E1DB;}
	.st6{fill:#BAB9AB;}
	.st7{fill:#ADCB7E;}
	.st8{fill:#77BF43;}
	.st9{fill:#2DA34A;}
	.st10{fill:#008D48;}
	.st11{fill:#0066B2;}
	.st12{fill:#00BEDB;}
	.st13{fill:#9F5DA4;}
	.st14{fill:#5B2C86;}
	.st15{fill:#5BA3AD;}
	.st16{fill:#585EA9;}
	.st17{fill:#7F9FD2;}
</style>
<path
   class="st0"
   d="m 133.892,70.928 h 5.112 v 13.026 c 0,3.6 1.024,4.934 3.38,4.934 1.91,0 3.2,-0.89 4.844,-3.022 V 70.928 h 5.114 v 21.826 h -4.18 l -0.4,-3.2 h -0.134 c -1.91,2.268 -4.044,3.734 -7.024,3.734 -4.666,0 -6.712,-3.154 -6.712,-8.668 z"
   id="path266" /><path
   class="st0"
   d="m 158.252,70.928 h 4.222 l 0.356,2.936 h 0.18 c 1.954,-1.914 4.178,-3.468 7.156,-3.468 4.668,0 6.712,3.156 6.712,8.668 v 13.69 h -5.112 V 79.73 c 0,-3.6 -1.024,-4.934 -3.422,-4.934 -1.914,0 -3.158,0.934 -4.98,2.71 v 15.248 h -5.112 z"
   id="path268" /><rect
   x="183.45601"
   y="70.928001"
   class="st0"
   width="5.112"
   height="21.826"
   id="rect270" /><path
   class="st0"
   d="m 192.391,70.928 h 5.202 l 3.466,11.336 c 0.578,2.132 1.244,4.356 1.822,6.578 h 0.18 c 0.622,-2.222 1.244,-4.446 1.868,-6.578 l 3.466,-11.336 h 4.934 l -7.422,21.826 h -5.914 z"
   id="path272" /><path
   class="st0"
   d="m 229.509,79.908 c 0,-3.466 -1.466,-5.558 -4.446,-5.558 -2.578,0 -4.8,1.914 -5.246,5.558 z m -4.58,-9.513 c 5.914,0 9.026,4.266 9.026,10.356 0,0.98 -0.09,1.868 -0.222,2.402 h -13.87 c 0.444,3.956 2.934,6.18 6.444,6.18 1.868,0 3.468,-0.578 5.068,-1.6 l 1.734,3.2 c -2.09,1.378 -4.712,2.356 -7.468,2.356 -6.044,0 -10.758,-4.224 -10.758,-11.426 0,-7.113 4.934,-11.468 10.046,-11.468"
   id="path274" /><path
   class="st0"
   d="m 239.288,70.928 h 4.222 l 0.356,3.868 h 0.18 c 1.554,-2.846 3.866,-4.4 6.178,-4.4 1.112,0 1.822,0.132 2.488,0.442 l -0.888,4.446 c -0.756,-0.222 -1.334,-0.356 -2.268,-0.356 -1.734,0 -3.822,1.202 -5.156,4.49 v 13.336 h -5.112 z"
   id="path276" /><path
   class="st0"
   d="m 255.867,86.976 c 1.956,1.512 3.824,2.446 6.046,2.446 2.354,0 3.466,-1.112 3.466,-2.624 0,-1.822 -2.354,-2.624 -4.666,-3.512 -2.89,-1.068 -6.134,-2.71 -6.134,-6.358 0,-3.822 3.066,-6.534 7.956,-6.534 3.024,0 5.468,1.246 7.246,2.624 l -2.356,3.112 c -1.512,-1.112 -3.068,-1.866 -4.8,-1.866 -2.178,0 -3.202,1.02 -3.202,2.398 0,1.69 2.178,2.402 4.534,3.246 2.98,1.112 6.27,2.534 6.27,6.624 0,3.734 -2.98,6.756 -8.492,6.756 -2.978,0 -6.134,-1.288 -8.268,-3.022 z"
   id="path278" /><rect
   x="275.293"
   y="70.928001"
   class="st0"
   width="5.112"
   height="21.826"
   id="rect280" /><path
   class="st0"
   d="m 288.273,74.973 h -3.112 v -3.824 l 3.378,-0.222 0.624,-5.956 h 4.268 v 5.956 h 5.556 v 4.046 h -5.556 v 10.402 c 0,2.578 0.978,3.824 3.066,3.824 0.756,0 1.644,-0.222 2.266,-0.49 l 0.89,3.78 c -1.2,0.4 -2.712,0.8 -4.446,0.8 -5.068,0 -6.934,-3.2 -6.934,-7.914 z"
   id="path282" /><path
   class="st0"
   d="m 316.901,79.908 c 0,-3.466 -1.468,-5.558 -4.446,-5.558 -2.578,0 -4.8,1.914 -5.246,5.558 z m -4.58,-9.513 c 5.914,0 9.026,4.266 9.026,10.356 0,0.98 -0.09,1.868 -0.222,2.402 h -13.87 c 0.444,3.956 2.934,6.18 6.444,6.18 1.868,0 3.468,-0.578 5.068,-1.6 l 1.734,3.2 c -2.09,1.378 -4.712,2.356 -7.468,2.356 -6.046,0 -10.758,-4.224 -10.758,-11.426 0,-7.113 4.934,-11.468 10.046,-11.468"
   id="path284" /><polygon
   class="st1"
   points="29.608,63.179 2.829,78.64 2.829,47.719 "
   id="polygon286"
   transform="translate(-2.829,-16.798)" /><polygon
   class="st2"
   points="2.829,78.64 29.607,63.18 29.607,94.1 "
   id="polygon288"
   transform="translate(-2.829,-16.798)" /><polygon
   class="st3"
   points="29.608,94.101 2.829,109.561 2.829,78.641 "
   id="polygon290"
   transform="translate(-2.829,-16.798)" /><polygon
   class="st4"
   points="2.829,109.561 29.607,94.101 29.607,125.022 "
   id="polygon292"
   transform="translate(-2.829,-16.798)" /><polygon
   class="st5"
   points="29.608,32.258 2.829,47.718 2.829,16.798 "
   id="polygon294"
   transform="translate(-2.829,-16.798)" /><polygon
   class="st6"
   points="2.829,47.719 29.607,32.259 29.607,63.179 "
   id="polygon296"
   transform="translate(-2.829,-16.798)" /><polygon
   class="st7"
   points="56.386,47.719 29.608,32.259 29.608,63.179 "
   id="polygon298"
   transform="translate(-2.829,-16.798)" /><polygon
   class="st8"
   points="29.608,63.179 56.386,78.64 56.386,47.719 "
   id="polygon300"
   transform="translate(-2.829,-16.798)" /><polygon
   class="st9"
   points="56.386,78.64 29.608,63.18 29.608,94.1 "
   id="polygon302"
   transform="translate(-2.829,-16.798)" /><polygon
   class="st10"
   points="29.608,94.101 56.386,109.561 56.386,78.641 "
   id="polygon304"
   transform="translate(-2.829,-16.798)" /><polygon
   class="st11"
   points="29.608,125.022 56.386,140.482 56.386,109.562 "
   id="polygon306"
   transform="translate(-2.829,-16.798)" /><polygon
   class="st12"
   points="56.386,109.561 29.608,94.101 29.608,125.022 "
   id="polygon308"
   transform="translate(-2.829,-16.798)" /><polygon
   class="st13"
   points="56.386,109.561 83.164,125.022 83.164,94.101 "
   id="polygon310"
   transform="translate(-2.829,-16.798)" /><polygon
   class="st14"
   points="83.164,125.022 56.386,109.562 56.386,140.482 "
   id="polygon312"
   transform="translate(-2.829,-16.798)" /><polygon
   class="st0"
   points="109.943,47.719 83.165,63.179 83.165,32.259 "
   id="polygon314"
   transform="translate(-2.829,-16.798)" /><polygon
   class="st15"
   points="83.164,32.258 109.943,16.798 109.943,47.718 "
   id="polygon316"
   transform="translate(-2.829,-16.798)" /><polygon
   class="st16"
   points="109.943,109.561 83.165,125.022 83.165,94.101 "
   id="polygon318"
   transform="translate(-2.829,-16.798)" /><polygon
   class="st17"
   points="83.164,94.101 109.943,78.641 109.943,109.561 "
   id="polygon320"
   transform="translate(-2.829,-16.798)" /><polygon
   class="st0"
   points="136.721,16.808 148.801,16.808 148.801,60.196 170.003,60.196 170.003,70.386 136.721,70.386 "
   id="polygon322"
   transform="translate(-2.829,-16.798)" /><rect
   x="175.06601"
   y="0.010000538"
   class="st0"
   width="12.08"
   height="53.577"
   id="rect324" /><path
   d="M 196.632,0.01 H 230.16 V 10.2 h -21.448 v 10.764 h 18.242 v 10.11 h -18.242 v 12.324 h 22.27 v 10.19 h -34.35 z"
   id="path437"
   style="fill:#007680;fill-opacity:1" /><path
   class="st0"
   d="m 235.096,27.61516 c 0,-4.359226 0.698,-8.246973 2.096,-11.663239 1.396,-3.416266 3.286,-6.308011 5.67,-8.6771983 2.384,-2.3672231 5.176,-4.1706345 8.382,-5.4082698 C 254.448,0.6288176 257.858,0.01 261.476,0.01 c 3.778,0 7.052,0.6993622 9.818,2.0980865 2.766,1.3987243 5.026,2.9860407 6.78,4.7619491 l -6.656,7.3452674 c -1.316,-1.237636 -2.698,-2.206134 -4.15,-2.905496 -1.452,-0.699363 -3.328,-1.049044 -5.63,-1.049044 -2.082,0 -3.984,0.390936 -5.71,1.170843 -1.726,0.779906 -3.22,1.895743 -4.478,3.349473 -1.262,1.45373 -2.234,3.227674 -2.918,5.327725 -0.686,2.098087 -1.028,4.467274 -1.028,7.101669 0,5.435773 1.246,9.645697 3.74,12.633703 2.492,2.98604 6.258,4.479061 11.298,4.479061 1.096,0 2.166,-0.133586 3.206,-0.404687 1.04,-0.267173 1.89,-0.67186 2.548,-1.208168 v -9.042596 h -8.876 v -9.684987 h 19.558 v 24.214433 c -1.918,1.775908 -4.438,3.28268 -7.56,4.520315 -3.122,1.237635 -6.574,1.856453 -10.354,1.856453 -3.616,0 -6.998,-0.579528 -10.15,-1.736618 -3.15,-1.155127 -5.904,-2.864242 -8.258,-5.125382 -2.356,-2.259176 -4.206,-5.070376 -5.546,-8.433601 -1.344,-3.363224 -2.014,-7.250971 -2.014,-11.663239"
   id="path328"
   style="stroke-width:0.991085" /><polygon
   class="st0"
   points="320.023,47.87 301.781,47.87 301.781,60.196 324.051,60.196 324.051,70.386 289.701,70.386 289.701,16.808 323.229,16.808 323.229,26.998 301.781,26.998 301.781,37.762 320.023,37.762 "
   id="polygon330"
   transform="translate(-2.829,-16.798)" /><path
   class="st0"
   d="m 182.879,64.776 c 0,-1.732 1.334,-2.934 3.158,-2.934 1.82,0 3.154,1.202 3.154,2.934 0,1.69 -1.334,2.89 -3.154,2.89 -1.824,0 -3.158,-1.2 -3.158,-2.89"
   id="path332" /><path
   class="st0"
   d="m 274.715,64.776 c 0,-1.732 1.334,-2.934 3.158,-2.934 1.82,0 3.154,1.202 3.154,2.934 0,1.69 -1.334,2.89 -3.154,2.89 -1.823,0 -3.158,-1.2 -3.158,-2.89"
   id="path334" /><polygon
   class="st0"
   points="315.862,78.639 320.974,78.639 315.684,85.131 311.904,85.131 "
   id="polygon336"
   transform="translate(-2.829,-16.798)" />
</svg>
